<svg xmlns="http://www.w3.org/2000/svg" viewBox="0 0 2048 2048"><defs><style>.a{fill:#8b5cf6;}</style></defs><path class="a" d="M1171.7,344.46s41.21-159.1-38.33-227.28c204.53,50,309.24,315.31,309.24,315.31s49.82-269.86,413.19-286.64C1506.07,553.51,1969.63,745.75,2044,1106.2c57.53,279.07-512.22,585.27-753.35,874.47-89,106.81-269.32,54.54-269.32,54.54L1024,0S1031.11,160,1171.7,344.46Zm570.71,902.07c-150-34-147.71-52.16-147.71-52.16s-2.27-97.72,50-227.25c-438.61,270.43-486.33,472.69-486.33,472.69S1503.8,1451.17,1742.41,1246.53Z"/><path class="a" d="M876.3,344.46s-41.21-159.1,38.33-227.28c-204.53,50-309.24,315.31-309.24,315.31S555.57,162.63,192.2,145.85C541.93,553.51,78.37,745.75,4.05,1106.2c-57.53,279.07,512.22,585.27,753.35,874.47,89.05,106.81,269.32,54.54,269.32,54.54L1024,0S1016.89,160,876.3,344.46ZM305.59,1246.53c150-34,147.71-52.16,147.71-52.16s2.27-97.72-50-227.25c438.61,270.43,486.33,472.69,486.33,472.69S544.2,1451.17,305.59,1246.53Z"/></svg>