<svg xmlns="http://www.w3.org/2000/svg" xmlns:xlink="http://www.w3.org/1999/xlink" viewBox="0 0 1906.2 430.55"><defs><style>.a{fill:none;}.b{font-size:300px;fill:#fff;font-family:Shojumaru-Regular, Shojumaru;}.c{letter-spacing:-0.03em;}.d{clip-path:url(#a);}.e{opacity:0.4;}.f{fill:#8b5cf6;}</style><clipPath id="a" transform="translate(-115.68 -795.45)"><rect class="a" x="115.68" y="795.45" width="400" height="400"/></clipPath></defs><text class="b" transform="translate(400 329.19)"><tspan class="c">V</tspan><tspan x="230.57" y="0">oidImp</tspan></text><g class="d"><g class="d"><path class="f" d="M344.53,862.73s8.05-31.08-7.49-44.39c39.95,9.76,60.4,61.58,60.4,61.58s9.73-52.71,80.7-56c-68.31,79.62,22.23,117.16,36.75,187.56,11.24,54.51-100,114.32-147.14,170.8-17.39,20.86-52.07,10.65-52.07,10.65V795.45s1.39,31.26,28.85,67.28M456,1038.91c-29.3-6.63-28.85-10.18-28.85-10.18s-.45-19.09,9.76-44.39c-85.66,52.82-95,92.32-95,92.32s67.47,2.22,114.08-37.75" transform="translate(-115.68 -795.45)"/><path class="f" d="M286.83,862.73s-8-31.08,7.49-44.39c-39.95,9.76-60.4,61.58-60.4,61.58s-9.73-52.71-80.7-56C221.53,903.56,131,941.1,116.47,1011.5c-11.23,54.51,100.05,114.32,147.14,170.8C281,1203.16,315.68,1193,315.68,1193V795.45s-1.39,31.26-28.85,67.28M175.37,1038.91c29.29-6.63,28.85-10.18,28.85-10.18s.44-19.09-9.77-44.39c85.67,52.82,95,92.32,95,92.32s-67.47,2.22-114.07-37.75" transform="translate(-115.68 -795.45)"/></g></g></svg>