<?xml version="1.0" standalone="no"?>
<!DOCTYPE svg PUBLIC "-//W3C//DTD SVG 20010904//EN"
 "http://www.w3.org/TR/2001/REC-SVG-20010904/DTD/svg10.dtd">
<svg version="1.0" xmlns="http://www.w3.org/2000/svg"
 width="2048.000000pt" height="2048.000000pt" viewBox="0 0 2048.000000 2048.000000"
 preserveAspectRatio="xMidYMid meet">
<metadata>
Created by potrace 1.14, written by Peter Selinger 2001-2017
</metadata>
<g transform="translate(0.000000,2048.000000) scale(0.100000,-0.100000)"
fill="#000000" stroke="none">
<path d="M10232 20393 c-24 -317 -193 -971 -365 -1407 -28 -72 -52 -133 -52
-136 -1 -3 -9 -22 -18 -44 -9 -21 -17 -40 -17 -42 0 -2 -13 -32 -29 -66 -16
-35 -46 -101 -66 -148 -66 -148 -259 -520 -336 -649 -22 -34 -39 -65 -39 -67
0 -16 -353 -557 -405 -621 -5 -6 -41 -55 -80 -108 l-70 -96 -17 73 c-10 40
-20 89 -23 108 -18 108 -38 239 -40 265 -2 17 -6 57 -9 90 -14 136 -17 198
-16 360 1 214 8 340 26 430 3 11 7 38 10 60 9 75 56 250 91 345 70 188 182
368 295 476 l59 56 -38 -6 c-113 -21 -484 -163 -640 -247 -279 -150 -596 -374
-817 -578 -134 -124 -357 -355 -451 -466 -27 -33 -52 -62 -55 -65 -14 -13 -96
-116 -178 -225 -50 -66 -95 -124 -100 -130 -4 -5 -37 -53 -72 -105 -36 -52
-68 -97 -71 -100 -5 -5 -142 -221 -176 -278 -94 -159 -156 -267 -183 -317 -17
-33 -47 -89 -67 -125 -33 -61 -179 -365 -218 -455 l-18 -40 -12 50 c-52 215
-200 572 -332 800 -65 112 -237 361 -324 469 -93 117 -319 354 -424 447 -170
149 -455 354 -610 439 -22 12 -56 31 -75 42 -104 61 -323 165 -510 241 -166
68 -568 193 -685 213 -16 3 -46 9 -65 14 -43 11 -163 35 -250 50 -36 6 -76 13
-90 16 -14 2 -45 7 -70 10 -25 3 -53 8 -64 10 -10 2 -44 6 -75 9 -31 3 -69 8
-86 10 -40 6 -128 15 -195 19 -30 2 -99 7 -153 11 -53 4 -97 5 -97 1 0 -6 24
-35 134 -166 113 -135 267 -344 407 -553 65 -97 119 -180 119 -183 0 -3 8 -18
19 -32 10 -15 29 -45 41 -67 13 -22 38 -67 57 -100 64 -113 201 -400 247 -517
103 -261 178 -524 211 -738 3 -19 7 -46 10 -60 36 -205 42 -666 10 -850 -3
-14 -7 -45 -10 -70 -31 -280 -157 -700 -317 -1060 -29 -64 -193 -398 -220
-445 -137 -244 -343 -588 -374 -625 -7 -8 -19 -26 -26 -40 -13 -25 -285 -435
-301 -455 -4 -5 -29 -41 -55 -80 -26 -38 -97 -142 -157 -229 -425 -616 -651
-960 -837 -1271 -108 -181 -278 -489 -278 -503 0 -5 -8 -20 -18 -33 -21 -29
-145 -288 -213 -446 -68 -160 -162 -410 -205 -549 -43 -138 -131 -479 -139
-538 -3 -23 -11 -68 -18 -101 -13 -68 -16 -393 -4 -500 63 -588 376 -1228 953
-1950 62 -77 120 -149 131 -160 10 -11 43 -49 73 -85 30 -36 57 -67 60 -70 3
-3 25 -27 49 -55 131 -148 282 -307 521 -545 294 -294 447 -440 669 -640 46
-41 95 -86 110 -100 25 -23 145 -130 195 -173 12 -10 37 -33 56 -50 33 -30
150 -132 214 -187 16 -14 34 -30 40 -36 15 -14 421 -360 480 -409 26 -22 56
-47 65 -56 9 -8 57 -49 106 -89 50 -41 96 -80 103 -87 7 -7 34 -29 60 -50 26
-21 52 -42 58 -48 6 -5 30 -26 54 -45 24 -19 48 -40 54 -45 6 -6 106 -89 221
-185 116 -96 212 -177 215 -180 3 -3 86 -73 185 -155 184 -154 203 -169 243
-203 13 -11 41 -35 64 -54 23 -18 46 -38 52 -43 6 -6 74 -64 151 -129 162
-138 243 -207 259 -221 6 -5 43 -37 81 -70 81 -70 86 -74 265 -231 74 -65 140
-123 146 -129 6 -5 41 -37 79 -70 37 -33 85 -76 105 -95 20 -19 59 -55 86 -79
52 -46 228 -210 329 -306 259 -245 669 -665 812 -831 10 -12 43 -50 74 -85 31
-35 87 -100 124 -144 258 -302 564 -490 973 -596 253 -65 418 -84 747 -84 218
0 332 7 500 29 43 6 85 13 259 42 16 3 32 7 36 9 4 3 22 7 41 9 19 3 48 8 64
13 50 12 95 8 225 -19 124 -27 142 -30 230 -43 25 -4 56 -8 70 -10 30 -5 89
-11 190 -22 151 -15 699 -7 729 11 3 2 33 7 66 10 33 4 67 9 75 11 8 2 31 7
50 10 203 34 476 135 660 243 157 92 321 228 430 358 74 88 135 160 140 164 3
3 23 25 44 50 235 270 656 697 1021 1035 191 177 370 339 435 395 14 12 39 34
55 49 102 92 230 203 455 395 140 120 271 233 291 250 20 17 58 49 84 71 27
22 53 45 59 50 9 8 202 170 455 380 13 11 29 25 35 30 6 6 106 89 221 185 116
96 212 176 215 179 3 4 26 23 52 44 26 21 53 43 60 50 7 7 54 46 103 87 50 41
99 83 110 92 11 10 56 48 101 86 44 37 104 87 134 112 61 51 269 228 315 269
17 14 62 53 100 86 39 33 83 72 100 87 41 36 71 63 128 112 27 22 61 52 76 66
15 14 62 57 106 95 43 39 90 80 103 92 13 13 63 58 111 100 47 43 100 92 118
108 17 17 82 77 145 135 155 143 660 649 788 789 58 63 112 122 120 131 8 9
42 47 75 85 33 39 64 75 70 81 5 6 28 32 50 58 22 27 48 58 59 70 10 11 30 37
45 56 14 19 34 44 44 55 88 97 365 491 485 691 200 334 374 750 418 1004 3 14
7 31 9 38 2 7 7 34 11 60 3 26 8 50 10 54 10 16 19 183 19 333 -1 149 -7 242
-20 297 -3 13 -7 37 -9 53 -21 168 -163 648 -274 925 -66 165 -195 455 -236
530 -7 14 -43 81 -78 150 -81 155 -116 218 -190 343 -32 55 -58 101 -58 103 0
2 -23 41 -52 86 -28 46 -61 99 -73 118 -12 19 -40 63 -63 98 -23 34 -42 65
-42 68 0 3 -25 42 -55 87 -307 461 -403 603 -504 747 -25 36 -83 121 -130 190
-47 69 -87 127 -91 130 -6 5 -316 471 -396 595 -221 343 -490 836 -599 1095
-27 65 -46 108 -70 165 -61 139 -172 522 -205 700 -5 28 -11 59 -13 70 -7 32
-18 115 -33 255 -10 91 -11 478 -1 575 16 152 38 284 73 433 13 59 27 116 29
128 7 29 93 295 104 319 5 11 21 52 36 90 62 162 208 456 320 645 75 127 247
388 302 459 7 9 40 54 74 101 35 47 65 87 68 90 4 3 19 23 36 45 16 22 32 42
35 45 3 3 43 51 88 106 44 56 89 109 98 119 17 17 12 17 -97 10 -63 -3 -134
-8 -159 -11 -121 -11 -204 -20 -270 -29 -14 -2 -50 -7 -80 -10 -49 -6 -291
-47 -346 -59 -12 -2 -37 -7 -55 -10 -19 -3 -115 -26 -214 -51 -99 -25 -184
-47 -190 -48 -74 -19 -434 -148 -523 -188 -34 -16 -65 -29 -68 -29 -11 0 -283
-139 -385 -197 -161 -92 -454 -295 -546 -378 -6 -5 -37 -32 -69 -60 -83 -71
-279 -266 -356 -355 -107 -123 -263 -332 -325 -435 -213 -353 -340 -637 -417
-935 l-14 -55 -20 45 c-137 312 -323 666 -487 929 -60 96 -208 319 -249 376
-19 28 -41 58 -48 68 -7 11 -39 53 -71 95 -32 43 -68 90 -80 106 -22 30 -106
132 -180 219 -142 168 -416 442 -561 562 -27 22 -54 45 -61 52 -24 23 -261
199 -315 233 -30 19 -56 38 -58 42 -2 5 -8 8 -14 8 -5 0 -29 14 -53 30 -24 17
-47 30 -50 30 -4 0 -19 9 -34 20 -45 31 -277 145 -396 193 -116 47 -227 85
-337 116 l-68 18 69 -72 c94 -99 163 -200 223 -324 28 -57 51 -109 52 -115 1
-6 4 -15 7 -21 20 -33 79 -256 94 -355 4 -25 9 -52 10 -60 3 -13 8 -58 21
-185 5 -46 5 -436 0 -470 -2 -16 -7 -68 -11 -115 -3 -47 -8 -92 -10 -100 -2
-8 -7 -44 -10 -80 -4 -35 -8 -67 -10 -70 -2 -4 -7 -31 -10 -60 -4 -30 -8 -57
-11 -61 -2 -4 -6 -24 -9 -45 -3 -22 -11 -60 -18 -86 l-12 -48 -39 53 c-106
141 -179 245 -273 387 -56 85 -106 160 -111 165 -5 6 -11 15 -13 20 -2 6 -30
53 -62 105 -77 125 -90 149 -193 332 -36 65 -222 442 -266 538 -54 119 -194
470 -228 570 -4 14 -11 34 -16 45 -4 11 -8 25 -9 30 -2 6 -13 39 -25 75 -18
52 -51 161 -85 280 -28 96 -102 421 -120 525 -21 124 -24 145 -31 218 -7 68
-18 89 -22 40z m-6022 -9714 c74 -46 137 -87 138 -91 2 -5 8 -8 12 -8 5 0 26
-11 47 -25 21 -14 45 -30 53 -35 252 -165 482 -317 540 -358 41 -28 82 -56 90
-62 8 -5 92 -64 185 -130 94 -66 197 -139 230 -162 57 -40 70 -49 98 -73 7 -6
28 -22 47 -35 19 -13 37 -27 40 -30 3 -3 23 -18 46 -33 22 -15 49 -35 60 -45
10 -9 29 -24 40 -32 54 -38 223 -169 364 -283 72 -58 230 -186 250 -203 138
-117 291 -250 374 -324 28 -25 56 -49 62 -55 235 -208 696 -669 909 -911 6 -6
24 -26 40 -45 41 -46 223 -265 260 -313 17 -21 35 -44 40 -50 6 -6 57 -74 114
-151 201 -272 360 -527 485 -779 73 -147 146 -328 146 -362 0 -15 -21 -16
-242 -10 -240 7 -292 9 -458 21 -139 10 -193 14 -235 19 -22 3 -69 8 -105 11
-36 3 -81 8 -100 10 -19 3 -53 7 -75 9 -22 3 -58 8 -80 10 -22 3 -60 8 -84 11
-42 5 -82 11 -131 20 -14 2 -45 7 -70 10 -91 12 -410 69 -515 91 -38 9 -80 17
-91 20 -68 13 -296 67 -399 94 -66 17 -130 33 -141 35 -179 39 -736 224 -1041
346 -284 114 -700 307 -838 389 -16 9 -55 31 -85 47 -341 185 -725 445 -1038
701 -51 42 -89 79 -85 83 5 4 69 21 143 38 74 17 151 35 170 41 19 6 46 12 60
15 14 3 99 25 190 50 91 25 172 47 180 50 50 12 252 79 350 115 180 66 315
138 358 190 12 15 10 195 -4 335 -29 286 -106 765 -138 855 -3 8 -7 26 -10 40
-7 40 -55 229 -78 305 -12 39 -23 77 -24 85 -11 54 -147 447 -223 644 -11 28
-11 28 11 14 13 -8 84 -53 158 -99z m12229 84 c-87 -223 -231 -648 -254 -750
-2 -10 -24 -97 -49 -193 -37 -147 -91 -398 -109 -515 -3 -16 -10 -59 -16 -95
-10 -67 -16 -112 -25 -190 -14 -125 -16 -149 -21 -194 -2 -27 -7 -108 -10
-180 -5 -148 -5 -148 75 -201 88 -58 198 -105 425 -182 132 -45 505 -153 580
-169 72 -14 381 -89 385 -92 3 -2 -6 -13 -20 -24 -14 -11 -45 -37 -70 -58
-169 -143 -430 -329 -750 -535 -164 -106 -591 -334 -795 -425 -27 -13 -79 -36
-115 -52 -36 -17 -87 -39 -114 -50 -27 -10 -68 -27 -90 -38 -48 -21 -269 -109
-306 -120 -14 -5 -97 -34 -185 -65 -235 -83 -487 -158 -773 -231 -139 -35
-263 -66 -275 -68 -12 -2 -75 -16 -140 -30 -65 -14 -133 -28 -150 -31 -18 -3
-63 -12 -102 -20 -65 -13 -327 -57 -420 -70 -241 -35 -407 -55 -580 -70 -33
-3 -80 -7 -105 -10 -42 -4 -154 -12 -295 -21 -33 -2 -167 -6 -299 -10 l-239
-7 7 35 c16 88 237 563 269 576 4 2 7 9 7 16 0 6 12 29 26 50 15 21 32 48 38
60 15 28 188 290 196 296 3 3 17 21 30 40 30 44 200 271 215 286 5 6 21 26 35
44 14 18 30 38 35 44 6 6 44 51 85 101 41 49 89 106 107 125 17 19 41 46 53
60 125 147 602 630 784 795 55 50 109 99 121 110 11 11 54 49 95 85 41 36 80
69 86 75 37 34 90 79 169 145 50 41 92 78 95 81 5 5 244 197 380 304 41 33 80
63 85 68 31 27 503 375 605 447 67 47 127 90 133 95 46 39 848 573 897 597 8
5 78 48 155 98 77 49 141 90 142 90 1 0 -2 -12 -8 -27z"/>
</g>
</svg>
